Patient4_TMGait_0pt8_01_right_26_EMG.mot
version=1
nRows=30
nColumns=33
inDegrees=no
endheader
time	1LAddLong	2LGlutMax	3LGlutMed	4LIliopsoas	5LSemiMemb	6LBicFemLong	7LRecFem	8LVastMed	9LVastLat	10LGasMed	11LTibAnt	12lTibPost	13LPeroneusLong	14LSol	15LExtDigLong	16LFlexDigLong	17RAddLong	18RGlutMax	19RGlutMed	20RIliopsoas	21RSemiMemb	22RBicFemLong	23RRecFem	24RVastMed	25RVastLat	26RGasMed	27RTibAnt	28RTibPost	29RPeroneusLong	30RSol	31RExtDigLong	32RFlexDigLong
30.245	0.008087	-0.023193	0.19043	-0.005493	-0.032654	-0.028381	0.28015	-0.003662	0.036163	-0.25421	-0.034332	-0.037384	-0.17868	-0.078583	-0.092163	0.010681	0.066071	0.067749	-0.30579	-0.1001	-0.11841	0.024261	-0.012054	-0.027161	0.010986	-0.001221	0.27451	-0.008698	0.28275	0.12482	-0.006866	0.056152
30.246	-0.001984	-0.024567	0.14557	-0.005341	-0.055847	0.022736	0.28625	0.003204	0.027466	-0.26932	-0.057526	-0.034943	-0.34546	-0.026093	0.1886	0.016632	0.068665	0.02533	-0.40451	-0.089264	-0.025482	0.048828	0.005951	-0.028381	0.001678	-0.000916	0.37781	-0.009766	0.38589	0.069122	-0.007935	0.077209
30.247	-0.004578	-0.002289	0.12756	0.007324	-0.077209	0.050049	0.30945	0.003052	0.031433	-0.24597	-0.017242	-0.026245	-0.62912	-0.041046	0.042114	0.018158	0.078583	0.050201	-0.1236	-0.06073	0.13565	-0.015717	0.027618	0.048218	0.022125	0.00824	0.20554	-0.00824	0.40176	0.020599	-0.005951	0.074768
30.248	-0.002136	-0.009766	0.040741	0.011597	-0.015869	0.033112	0.30014	0.006104	0.057068	-0.20294	0.065613	-0.026245	-0.21576	-0.07309	0.11261	0.020599	0.060272	0.061951	-0.32105	-0.18158	-0.00061	0.043335	0.10483	0.099792	0.017242	0.010223	0.12466	-0.013733	0.29526	-0.002899	-0.007172	0.083618
30.249	0.009308	-0.01236	0.031891	0.013428	0.036469	0.014648	0.28473	0.003967	0.03418	-0.16205	-0.030823	-0.022278	0.058899	-0.077515	0.005188	0.012665	0.067444	-0.001526	-0.19913	-0.35263	-0.1593	0.026855	0.15182	0.009766	-0.030823	0.002136	0.1416	-0.009613	0.009613	-0.024261	-0.006714	0.096741
30.25	0.002136	0.006104	0.068512	0.023193	0.028381	0.016785	0.35019	-0.006104	0.04776	-0.016937	-0.21362	-0.020447	0.16205	-0.023804	-0.31891	0.008087	0.024719	0.069733	-0.08667	-0.34241	-0.35111	-0.024261	0.1471	0.052795	-0.025177	0.007477	0.23346	-0.00946	-0.30838	-0.024872	-0.004883	0.13626
30.251	0.010681	0.031281	0.02533	0.033264	0.019989	0.007629	0.36896	-0.016327	0.050507	0.12192	-0.21271	-0.02182	0.29419	-0.012665	-0.21561	0.011292	-0.010071	0.051117	0.46387	-0.025024	-0.30075	-0.042419	0.095825	0.00824	-0.018311	-0.00061	0.121	-0.008545	-0.8931	-0.018921	-0.009766	0.18265
30.252	0.006104	-0.000305	-0.1207	0.005951	0.000763	0.034332	0.38345	-0.002899	0.003357	0.23972	-0.14801	-0.017242	0.34561	-0.020752	-0.046997	-0.006714	-0.059967	-0.002594	1.0492	0.32684	0.13992	0.005341	0.0737	0.017548	-0.015259	0.001221	-0.095978	-0.005646	-0.63583	-0.029907	-0.004883	-0.091705
30.253	0.007782	-0.008087	-0.079041	0.020142	0.023651	0.02594	0.27542	0.004425	0.009155	0.30731	-0.061951	-0.017548	0.47211	-0.092621	-0.007019	0.000153	-0.083618	0.014954	0.38116	0.67093	0.35049	0.022278	0.030212	0.006256	-0.013428	-0.007019	-0.29602	-0.002899	0.088043	-0.03418	-0.004272	-0.16281
30.254	0.007782	-0.025482	-0.059814	0.00412	0.032196	-0.017548	0.27115	0.006866	0.076599	0.35111	-0.026398	-0.019226	0.55145	-0.13428	-0.027161	-0.002136	-0.050964	-0.029144	0.4718	0.39414	0.25391	-0.033569	0.004578	-0.033722	-0.023804	-0.006714	-0.17853	-0.010071	0.99213	-0.07782	-0.004272	-0.19486
30.255	0.010986	-0.04425	0.013123	-0.015869	0.071259	-0.041962	0.34134	-0.002899	0.11429	0.31754	-0.03891	-0.02182	0.45105	-0.12665	-0.010376	0.033417	-0.033569	-0.037231	0.024719	0.029297	0.076752	-0.081482	-0.018768	-0.052643	-0.009003	0.015106	-0.043335	-0.008545	0.22919	-0.072937	-0.003357	-0.19134
30.256	0.005798	0.002594	0.094299	-0.017395	0.07843	-0.056458	0.43167	0.001984	0.049591	0.10712	-0.04715	-0.021515	0.32867	-0.095978	-0.006104	0.010986	-0.008545	-0.036621	-0.15121	-0.07431	-0.043793	-0.085144	-0.02182	-0.10315	0.005341	0.023956	0.081024	-0.002899	-0.29251	-0.029602	-0.005646	-0.16281
30.257	0.003357	-0.026855	0.053101	-0.005493	0.067444	-0.023041	0.30731	0.001221	0.003052	0.12039	-0.093079	-0.025635	-0.20371	0.077057	-0.031281	-0.005188	-0.012665	-0.02243	-0.056152	-0.052948	-0.12558	-0.066986	0.009003	-0.05188	0.001984	0.022736	0.11932	-0.007019	-0.26169	0.009766	-0.000916	-0.12161
30.258	-0.001678	-0.004425	-0.024414	0.005341	0.034332	0.035858	0.23102	0.001526	-0.002136	0.21133	-0.10437	-0.01358	0.05249	0.17532	0.001068	0.000305	-0.052185	0.040283	0.03418	-0.046387	-0.018768	-0.009918	-0.050812	-0.033112	0.028839	-0.006714	0.10269	-0.004272	0.21561	-0.022125	-0.005188	-0.11002
30.259	-0.003815	0.003967	-0.020599	-0.011749	0.008087	0.050201	0.29648	0.00061	0.044556	0.13428	-0.10925	-0.013733	-0.7016	0.09079	0.016327	0.007324	-0.083313	0.046082	0.07843	0.092773	0.16769	0.059662	-0.025024	-0.027008	0.015869	-0.025024	0.10788	-0.003204	0.24139	-0.048981	-0.001221	-0.14053
30.26	-0.002594	0.002747	-0.042725	0.000763	0.006714	0.037537	0.38071	-0.015411	0.091858	0.059052	-0.038452	-0.014038	0.24277	0.091858	0.000458	0.014496	-0.057678	0.032196	0.030518	0.13855	0.11353	-0.027008	0.018921	-0.001831	0.023804	-0.049591	0.084076	0.000153	0.10757	-0.046234	-0.005646	-0.16312
30.261	-0.007629	-0.000305	-0.15884	0.00061	0.00473	0.033569	0.38773	-0.006561	0.077667	-0.033875	0.10452	-0.020752	-0.02533	0.06424	0.38757	0.036774	-0.027771	0.031128	-0.1387	0.096741	0.11536	-0.065765	0.008545	-0.023651	0.00824	0.030212	0.088959	-0.003052	-0.1152	-0.0354	-0.003662	-0.16037
30.262	-0.004578	-0.010681	-0.1329	-0.002899	0.008087	0.014343	0.33768	0.007629	0.071869	-0.06485	0.10742	-0.024719	0.059967	0.054016	0.50476	-0.000153	-0.022888	0.041809	-0.35507	0.053253	0.085144	-0.084229	0.006256	-0.01236	0.016479	0.065308	0.08667	-0.006714	-0.052338	-0.041046	-0.004578	-0.12375
30.263	0.005951	0.037842	-0.13931	0.003662	0.009766	0.018768	0.2327	0.003052	0.12497	-0.070648	0.007782	-0.006714	-0.21149	0.12619	-0.22492	0.006409	-0.005951	0.019836	-0.21988	0.017548	0.017395	-0.053711	0.034637	-0.083923	0.014801	0.013123	0.084381	-0.00885	0.034943	-0.023956	-0.00473	-0.11047
30.264	-0.00824	0.008392	0.042267	-0.018311	0.007019	0.082397	0.29907	0	0.1149	-0.031891	0.04303	-0.006561	-0.73898	0.072174	0.24429	0.002594	-0.006714	0.081024	-0.24735	0.003967	-0.005035	-0.061188	0.003815	-0.012512	0.014496	0.003662	0.072632	-0.001526	0.088654	-0.011444	0.004425	-0.10223
30.265	-0.018921	0.014801	0.10681	-0.025177	-0.003204	0.083466	0.29968	0.000763	0.081177	0.027313	0.1683	-0.011749	-0.58136	0.024567	-0.34729	0.006561	0.00473	0.084229	-0.50522	0.014496	0.030518	-0.030823	0.04715	-0.057373	0.01297	0.002136	0.093079	-0.002441	0.002136	-0.06424	-0.006714	-0.10101
30.266	-0.010681	0.022278	0.23743	-0.026398	-0.032043	0.013123	0.31509	-0.000916	0.056763	-0.004883	0.12238	-0.007477	0.46677	0.033569	-0.36484	0.006256	0.000763	0.062714	-0.99045	0.074005	0.029602	0.034637	0.076752	-0.058746	0.022736	0.000458	0.099335	-0.00885	-0.071869	-0.05127	-0.002594	-0.11581
30.267	-0.004578	0.016937	0.12299	-0.00412	-0.015259	-0.015564	0.31082	0.00885	-0.01297	0.012817	-0.038605	-0.002899	0.3627	-0.015564	-0.35706	0.004425	0.013733	0.072479	-0.51895	0.027466	0.02655	0.26032	0.15045	-0.093994	0.040436	0.000458	0.061951	0.001526	0.00885	-0.04364	-0.00473	-0.12421
30.268	-0.014954	0.016327	0.032501	-0.005493	0.018158	0.003967	0.31036	0.019379	-0.033875	-0.049133	0.06958	-0.008392	0.20248	0.031433	-0.25757	-0.00946	0.014648	0.14694	0.19196	-0.06897	-0.027924	0.15533	0.15747	-0.12528	0.014648	-0.000305	0.078125	-0.000153	0.031281	-0.04364	-0.004578	-0.12177
30.269	-0.009155	-0.016632	0.025482	0.007477	0.005035	-0.024261	0.22461	0.024261	-0.04364	-0.11276	0.061798	0.006561	-0.037384	-0.067596	-0.21149	0.000916	0.013428	0.13809	0.43533	-0.16083	-0.076904	0.060272	0.15213	-0.15167	0.019836	0.011139	0.07309	-0.006409	-0.24521	-0.10895	-0.00351	-0.1149
30.27	-0.000916	-0.061188	-0.028839	0.014954	-0.024719	-0.074768	0.20233	0.008698	-0.031738	-0.11856	-0.007935	0.000458	-0.3447	0.049591	-0.004578	0.014801	-0.005035	0.19959	1.4108	-0.16602	-0.072937	0.002747	0.023499	-0.1387	0.021515	0.007019	0.076904	0.006104	-0.34164	-0.11292	0.005188	-0.11246
30.271	0.003967	-0.06073	-0.11002	0.010986	0.001831	-0.09613	0.27588	-0.003967	-0.032654	-0.057678	0.00946	0.006256	-0.32486	0.079956	0.10681	0.016937	-0.007172	0.1265	1.8748	-0.14008	-0.038757	-0.087128	-0.041809	-0.13275	0.021973	0.001831	0.19745	-0.001373	-0.13519	-0.046844	-0.00412	-0.11032
30.272	0.007324	-0.062866	-0.028992	0.032959	0.037689	-0.05127	0.3038	-0.02533	0.018311	-0.044861	0.03952	0.005951	-0.36835	0.028381	0.094147	0.001984	-0.003204	-0.047455	1.248	-0.17822	0.17609	-0.16037	-0.081024	-0.1062	0.017548	-0.010834	0.3923	-0.007019	0.043945	0.011902	-0.007172	-0.086975
30.273	0.011597	-0.088959	0.018158	0.014191	0.084686	0.034332	0.3096	-0.000458	0.010681	-0.076447	-0.035248	0.001221	-0.066833	0.159	0.17609	0.008392	0.001831	-0.13947	0.041046	-0.088043	0.14175	-0.1741	-0.083771	-0.10605	0.016937	-0.007324	0.46829	0.00473	0.15335	-0.015564	-0.004883	-0.066528
30.274	-0.007019	-0.072174	-0.07019	0.018311	0.069885	0.058746	0.27191	0.003662	0.075684	-0.081177	-0.036926	0.009308	0.85754	0.18356	0.19486	0.011444	0.002441	-0.11932	-0.70664	-0.002289	-0.083618	-0.082703	-0.13321	-0.091553	0.026093	0.009918	0.18646	0.000458	0.079956	-0.11963	-0.007324	-0.049286
